<?xml version="1.0" standalone="no"?><!DOCTYPE svg PUBLIC "-//W3C//DTD SVG 1.1//EN" "http://www.w3.org/Graphics/SVG/1.1/DTD/svg11.dtd"><svg t="1741173506037" class="icon" viewBox="0 0 1024 1024" version="1.1" xmlns="http://www.w3.org/2000/svg" p-id="1671" xmlns:xlink="http://www.w3.org/1999/xlink" width="200" height="200"><path d="M798.171429 485.238857c0.676571 1.316571 1.773714 2.413714 2.377142 3.776 11.648 24.246857 7.835429 53.915429-12.80914199 73.417143l-467.96800001 442.614857a63.652571 63.652571 0 0 1-89.910858-2.505143 63.616 63.616 0 0 1 2.505143-89.910857L652.251429 515.419429 234.020571 112.32A63.606857 63.606857 0 0 1 278.144 2.95314299 63.451429 63.451429 0 0 1 322.285714 20.754286l463.725715 446.939428c0.886857 0.886857 1.225143 2.112 2.121142 3.044572 0.676571 0.64 1.398857 1.106286 2.075429 1.782857 3.602286 3.776 5.513143 8.393143 7.963429 12.717714z" fill="#13227a" p-id="1672"></path></svg>