<?xml version="1.0" standalone="no"?><!DOCTYPE svg PUBLIC "-//W3C//DTD SVG 1.1//EN" "http://www.w3.org/Graphics/SVG/1.1/DTD/svg11.dtd"><svg t="1741173498453" class="icon" viewBox="0 0 1024 1024" version="1.1" xmlns="http://www.w3.org/2000/svg" p-id="1498" xmlns:xlink="http://www.w3.org/1999/xlink" width="200" height="200"><path d="M714.1 359.1v70.2h69.8v-70.2c0-14.4-11.6-26-26-26h-69.8c14.4 0 26 11.7 26 26zM791.9 429.3H722c14.4 0 26 11.6 26 26v332.9c0 14.4-11.6 26-26 26h69.8c14.4 0 26-11.6 26-26V455.3c0.1-14.4-11.6-26-25.9-26z" fill="#2EA7E0" p-id="1499"></path><path d="M722 429.3h-7.9v-70.2c0-14.4-11.6-26-26-26H413.3l26 78.4c3.5 10.6 13.5 17.8 24.7 17.8h-33.2c-11.2 0-21.2-7.2-24.7-17.8l-26-78.4-4.3-13.1c-3.5-10.6-13.5-17.8-24.7-17.8H238.6c-14.4 0-26 11.6-26 26v141.1c0 1.7 0.2 3.4 0.5 5.1v313.8c0 14.4 11.6 26 26 26H722c14.4 0 26-11.6 26-26V455.3c0-14.4-11.6-26-26-26z" fill="#F7F8F8" p-id="1500"></path><path d="M140.9 259.3h13.6V273c0 3.4 2.8 6.2 6.2 6.2s6.2-2.8 6.2-6.2v-13.6h13.6c3.4 0 6.2-2.8 6.2-6.2 0-3.4-2.8-6.2-6.2-6.2h-13.6v-13.6c0-3.4-2.8-6.2-6.2-6.2s-6.2 2.8-6.2 6.2V247h-13.6c-3.4 0-6.2 2.8-6.2 6.2 0 3.4 2.8 6.1 6.2 6.1zM848.7 381.2c0-1.9-1.5-3.4-3.4-3.4h-7.4v-7.4c0-1.9-1.5-3.4-3.4-3.4s-3.4 1.5-3.4 3.4v7.4h-7.4c-1.9 0-3.4 1.5-3.4 3.4s1.5 3.4 3.4 3.4h7.4v7.4c0 1.9 1.5 3.4 3.4 3.4s3.4-1.5 3.4-3.4v-7.4h7.4c1.9 0 3.4-1.5 3.4-3.4zM862.9 720.8c-5.8 0-10.5 4.7-10.5 10.5s4.7 10.5 10.5 10.5 10.5-4.7 10.5-10.5-4.7-10.5-10.5-10.5z m0 16c-3 0-5.5-2.5-5.5-5.5s2.5-5.5 5.5-5.5 5.5 2.5 5.5 5.5-2.5 5.5-5.5 5.5zM689.9 857.7c-5.8 0-10.5 4.7-10.5 10.5s4.7 10.5 10.5 10.5 10.5-4.7 10.5-10.5-4.8-10.5-10.5-10.5z m0 16c-3 0-5.5-2.5-5.5-5.5s2.5-5.5 5.5-5.5 5.5 2.5 5.5 5.5-2.5 5.5-5.5 5.5zM155.7 836.2c-11.6 0-21 9.4-21 21s9.4 21 21 21 21-9.4 21-21-9.4-21-21-21z m0 32c-6.1 0-11-4.9-11-11s4.9-11 11-11 11 4.9 11 11-4.9 11-11 11zM241.9 893.1c-1.2 0-2.2 1-2.2 2.2v6.9c0 1.2 1 2.2 2.2 2.2 1.2 0 2.2-1 2.2-2.2v-6.9c-0.1-1.2-1.1-2.2-2.2-2.2zM241.9 913.8c-1.2 0-2.2 1-2.2 2.2v6.9c0 1.2 1 2.2 2.2 2.2 1.2 0 2.2-1 2.2-2.2V916c-0.1-1.2-1.1-2.2-2.2-2.2zM248.3 912.4c-0.8-0.8-2.2-0.8-3 0-0.8 0.8-0.8 2.2 0 3l4.9 4.9c0.4 0.4 1 0.6 1.5 0.6 0.6 0 1.1-0.2 1.5-0.6 0.8-0.8 0.8-2.2 0-3l-4.9-4.9zM233.6 897.8c-0.8-0.8-2.2-0.8-3 0-0.8 0.8-0.8 2.2 0 3l4.9 4.9c0.4 0.4 1 0.6 1.5 0.6 0.6 0 1.1-0.2 1.5-0.6 0.8-0.8 0.8-2.2 0-3l-4.9-4.9zM235.5 912.4l-4.9 4.9c-0.8 0.8-0.8 2.2 0 3 0.4 0.4 1 0.6 1.5 0.6 0.6 0 1.1-0.2 1.5-0.6l4.9-4.9c0.8-0.8 0.8-2.2 0-3-0.8-0.8-2.2-0.8-3 0zM246.7 906.4c0.6 0 1.1-0.2 1.5-0.6l4.9-4.9c0.8-0.8 0.8-2.2 0-3-0.8-0.8-2.2-0.8-3 0l-4.9 4.9c-0.8 0.8-0.8 2.2 0 3 0.4 0.4 1 0.6 1.5 0.6zM255.6 906.9h-6.9c-1.2 0-2.2 1-2.2 2.2s1 2.2 2.2 2.2h6.9c1.2 0 2.2-1 2.2-2.2s-1-2.2-2.2-2.2zM237.1 909.1c0-1.2-1-2.2-2.2-2.2H228c-1.2 0-2.2 1-2.2 2.2s1 2.2 2.2 2.2h6.9c1.2-0.1 2.2-1 2.2-2.2zM848.7 213.1c2.3 0 4.2-1.9 4.2-4.2v-13.4c0-2.3-1.9-4.2-4.2-4.2-2.3 0-4.2 1.9-4.2 4.2v13.4c0.1 2.3 1.9 4.2 4.2 4.2zM848.7 253.1c2.3 0 4.2-1.9 4.2-4.2v-13.4c0-2.3-1.9-4.2-4.2-4.2-2.3 0-4.2 1.9-4.2 4.2V249c0.1 2.3 1.9 4.1 4.2 4.1zM864.7 244.1c0.8 0.8 1.9 1.2 3 1.2s2.1-0.4 3-1.2c1.6-1.6 1.6-4.3 0-5.9l-9.4-9.4c-1.6-1.6-4.3-1.6-5.9 0-1.6 1.6-1.6 4.3 0 5.9l9.3 9.4zM836.3 215.8c0.8 0.8 1.9 1.2 3 1.2s2.1-0.4 3-1.2c1.6-1.6 1.6-4.3 0-5.9l-9.4-9.4c-1.6-1.6-4.3-1.6-5.9 0-1.6 1.6-1.6 4.3 0 5.9l9.3 9.4zM836.3 228.8l-9.4 9.4c-1.6 1.6-1.6 4.3 0 5.9 0.8 0.8 1.9 1.2 3 1.2s2.1-0.4 3-1.2l9.4-9.4c1.6-1.6 1.6-4.3 0-5.9-1.7-1.7-4.3-1.7-6 0zM858.2 217c1.1 0 2.1-0.4 3-1.2l9.4-9.4c1.6-1.6 1.6-4.3 0-5.9-1.6-1.6-4.3-1.6-5.9 0l-9.4 9.4c-1.6 1.6-1.6 4.3 0 5.9 0.7 0.8 1.8 1.2 2.9 1.2zM875.5 218.1h-13.4c-2.3 0-4.2 1.9-4.2 4.2 0 2.3 1.9 4.2 4.2 4.2h13.4c2.3 0 4.2-1.9 4.2-4.2-0.1-2.4-1.9-4.2-4.2-4.2zM822 226.4h13.4c2.3 0 4.2-1.9 4.2-4.2 0-2.3-1.9-4.2-4.2-4.2H822c-2.3 0-4.2 1.9-4.2 4.2 0 2.4 1.9 4.2 4.2 4.2z" fill="#036EB8" p-id="1501"></path><path d="M314.7 857.2m-8.9 0a8.9 8.9 0 1 0 17.8 0 8.9 8.9 0 1 0-17.8 0Z" fill="#036EB8" p-id="1502"></path><path d="M125.9 805.3m-8.9 0a8.9 8.9 0 1 0 17.8 0 8.9 8.9 0 1 0-17.8 0Z" fill="#036EB8" p-id="1503"></path><path d="M848.7 897.1m-8.9 0a8.9 8.9 0 1 0 17.8 0 8.9 8.9 0 1 0-17.8 0Z" fill="#036EB8" p-id="1504"></path><path d="M793.9 419.4v-60.2c0-19.9-16.1-36-36-36H387.3l-2.1-6.2c-4.9-14.8-18.6-24.7-34.2-24.7H203.9c-19.9 0-36 16.1-36 36v53c0 5.5 4.5 10 10 10s10-4.5 10-10v-53c0-8.8 7.2-16 16-16h147.2c6.9 0 13 4.4 15.2 11l4.3 13.1 26 78.4c0.2 0.5 0.3 0.9 0.5 1.4 4.4 11.7 14.5 20.2 26.6 22.6 0.5 0.1 0.9 0.2 1.4 0.3 0.9 0.2 1.9 0.3 2.8 0.3 1 0.1 1.9 0.1 2.9 0.1H791.9c8.8 0 16 7.2 16 16v77.9c0 5.5 4.5 10 10 10s10-4.5 10-10v-77.9c0-19.4-15.1-35.1-34-36.1z m-363.1-0.1c-6.9 0-13-4.4-15.2-11L394 343.1h364c8.8 0 16 7.2 16 16v60.2H430.8zM817.9 557.2c-5.5 0-10 4.5-10 10v221c0 8.8-7.2 16-16 16H428c-5.5 0-10 4.5-10 10s4.5 10 10 10h363.8c19.9 0 36-16.1 36-36v-221c0.1-5.5-4.4-10-9.9-10zM393.7 804.2h-21c-5.5 0-10 4.5-10 10s4.5 10 10 10h21c5.5 0 10-4.5 10-10s-4.5-10-10-10zM343.5 804.2H204.4c-8.8 0-16-7.2-16-16V474.4c0-0.7-0.1-1.3-0.2-1.9-0.2-1-0.3-2.1-0.3-3.1v-58.1c0-5.5-4.5-10-10-10s-10 4.5-10 10v58.1c0 2 0.2 4 0.5 6v312.9c0 19.9 16.1 36 36 36h139.1c5.5 0 10-4.5 10-10s-4.5-10.1-10-10.1z" fill="#036EB8" p-id="1505"></path><path d="M444 640.8m-16 0a16 16 0 1 0 32 0 16 16 0 1 0-32 0Z" fill="#3E3A39" p-id="1506"></path><path d="M412 667.5m-16 0a16 16 0 1 0 32 0 16 16 0 1 0-32 0Z" fill="#EF6676" p-id="1507"></path><path d="M583.7 667.5m-16 0a16 16 0 1 0 32 0 16 16 0 1 0-32 0Z" fill="#EF6676" p-id="1508"></path><path d="M551.7 640.8m-16 0a16 16 0 1 0 32 0 16 16 0 1 0-32 0Z" fill="#3E3A39" p-id="1509"></path><path d="M523.2 651.5h-50.6c-3.9 0-6.7 3.7-5.8 7.5 1.8 7.5 6.3 14 12.3 18.4 5.3 3.8 11.8 6.1 18.8 6.1s13.5-2.3 18.8-6.1c6.1-4.4 10.5-10.9 12.3-18.4 0.9-3.8-1.9-7.5-5.8-7.5z" fill="#3E3A39" p-id="1510"></path><path d="M497.9 667.5c-7 0-13.3 3.2-17.5 8.2-0.8 0.9-0.5 2.3 0.5 3 4.9 3.1 10.7 4.9 17 4.9 6.2 0 12.1-1.8 17-4.9 1-0.6 1.3-2 0.5-3-4.3-5-10.5-8.2-17.5-8.2z" fill="#E4847F" p-id="1511"></path></svg>