<?xml version="1.0" standalone="no"?><!DOCTYPE svg PUBLIC "-//W3C//DTD SVG 1.1//EN" "http://www.w3.org/Graphics/SVG/1.1/DTD/svg11.dtd"><svg t="1744869762240" class="icon" viewBox="0 0 1024 1024" version="1.1" xmlns="http://www.w3.org/2000/svg" p-id="1464" xmlns:xlink="http://www.w3.org/1999/xlink" width="256" height="256"><path d="M554.8544 550.5536m-348.16 0a348.16 348.16 0 1 0 696.32 0 348.16 348.16 0 1 0-696.32 0Z" fill="#A5ADF6" p-id="1465"></path><path d="M513.28 88.576a420.4032 420.4032 0 1 0 420.4032 420.4032 420.864 420.864 0 0 0-420.4032-420.4032z m0 779.3664a358.9632 358.9632 0 1 1 358.9632-358.9632 359.3728 359.3728 0 0 1-358.9632 358.9632z" fill="#5D5D66" p-id="1466"></path><path d="M630.0672 445.44l-143.36-82.6368a73.5232 73.5232 0 0 0-110.0288 63.5392v165.2736A73.3184 73.3184 0 0 0 486.912 655.36l143.36-82.6368a73.5232 73.5232 0 0 0 0-127.2832z m-30.72 74.0864l-143.36 82.6368a12.0832 12.0832 0 0 1-18.0736-10.24V426.3424a11.7248 11.7248 0 0 1 6.0416-10.24 12.1344 12.1344 0 0 1 6.0416-1.6896 11.8784 11.8784 0 0 1 5.9904 1.6896l143.36 82.6368a12.0832 12.0832 0 0 1 0 20.8896z" fill="#5D5D66" p-id="1467"></path></svg>